<svg id="Layer_2" data-name="Layer 2" xmlns="http://www.w3.org/2000/svg" viewBox="0 0 161.75 60.46"><defs><style>.cls-1,.cls-2,.cls-3,.cls-4,.cls-5,.cls-6,.cls-7,.cls-8,.cls-9{fill:none;}.cls-1,.cls-8{stroke:#4db5e2;}.cls-1,.cls-5,.cls-8{stroke-width:3px;}.cls-2,.cls-9{stroke:#80f2ff;}.cls-2,.cls-4,.cls-6,.cls-9{stroke-width:2px;}.cls-3,.cls-4,.cls-7{stroke:#fff;}.cls-4,.cls-5,.cls-6,.cls-7,.cls-8,.cls-9{stroke-linecap:round;stroke-linejoin:round;}.cls-5{stroke:#ff5795;}.cls-6{stroke:#ff96ff;}.cls-10{fill:#8afff3;}.cls-11{fill:#ffa1ff;}</style></defs><path class="cls-1" d="M33.6,62.64l-1.14-.19c-2-.36-3.86-.8-5.58-1.27a13,13,0,0,0,.76-7.61,13.34,13.34,0,0,0-5.07-7.87,5.83,5.83,0,0,1,.93-.84,4.82,4.82,0,0,1,1.35-.68c2.31-.73,5.11.38,7.1,2.79.23.42.47.91.71,1.47a21,21,0,0,1,1.58,5.63A21.12,21.12,0,0,1,33.6,62.64Z" transform="translate(-16.5 -4.5)"/><path class="cls-1" d="M43.12,51.19V63.46h-.26a63.11,63.11,0,0,1-9.26-.81,21.12,21.12,0,0,0,.64-8.57,21,21,0,0,0-1.58-5.63c-.24-.56-.48-1-.71-1.47a23.28,23.28,0,0,1,2.79-2.28c.35-.24.69-.47,1-.67" transform="translate(-16.5 -4.5)"/><path class="cls-1" d="M46.67,44a18,18,0,0,1,2.81-.61c.64.36,1.33.78,2,1.27A22.51,22.51,0,0,1,54.3,47c2-2.41,4.79-3.52,7.11-2.79a5,5,0,0,1,.82.35,5.65,5.65,0,0,1,1.46,1.17,13.25,13.25,0,0,0-5.07,7.87,13,13,0,0,0,.76,7.61c-2.19.59-4.1,1-5.61,1.27a57.17,57.17,0,0,1-10.4,1h-.25V51.19" transform="translate(-16.5 -4.5)"/><path class="cls-1" d="M54.21,47a20.9,20.9,0,0,0-1.65,15.67" transform="translate(-16.5 -4.5)"/><path class="cls-2" d="M33.6,62.64l-1.14-.19c-2-.36-3.86-.8-5.58-1.27a13,13,0,0,0,.76-7.61,13.34,13.34,0,0,0-5.07-7.87,5.83,5.83,0,0,1,.93-.84,4.82,4.82,0,0,1,1.35-.68c2.31-.73,5.11.38,7.1,2.79.23.42.47.91.71,1.47a21,21,0,0,1,1.58,5.63A21.12,21.12,0,0,1,33.6,62.64Z" transform="translate(-16.5 -4.5)"/><path class="cls-2" d="M43.12,51.19V63.46h-.26a63.11,63.11,0,0,1-9.26-.81,21.12,21.12,0,0,0,.64-8.57,21,21,0,0,0-1.58-5.63c-.24-.56-.48-1-.71-1.47a23.28,23.28,0,0,1,2.79-2.28c.35-.24.69-.47,1-.67" transform="translate(-16.5 -4.5)"/><path class="cls-2" d="M46.67,44a18,18,0,0,1,2.81-.61c.64.36,1.33.78,2,1.27A22.51,22.51,0,0,1,54.3,47c2-2.41,4.79-3.52,7.11-2.79a5,5,0,0,1,.82.35,5.65,5.65,0,0,1,1.46,1.17,13.25,13.25,0,0,0-5.07,7.87,13,13,0,0,0,.76,7.61c-2.19.59-4.1,1-5.61,1.27a57.17,57.17,0,0,1-10.4,1h-.25V51.19" transform="translate(-16.5 -4.5)"/><path class="cls-2" d="M54.21,47a20.9,20.9,0,0,0-1.65,15.67" transform="translate(-16.5 -4.5)"/><path class="cls-3" d="M33.6,62.64l-1.14-.19c-2-.36-3.86-.8-5.58-1.27a13,13,0,0,0,.76-7.61,13.34,13.34,0,0,0-5.07-7.87,5.83,5.83,0,0,1,.93-.84,4.82,4.82,0,0,1,1.35-.68c2.31-.73,5.11.38,7.1,2.79.23.42.47.91.71,1.47a21,21,0,0,1,1.58,5.63A21.12,21.12,0,0,1,33.6,62.64Z" transform="translate(-16.5 -4.5)"/><path class="cls-3" d="M43.12,51.19V63.46h-.26a63.11,63.11,0,0,1-9.26-.81,21.12,21.12,0,0,0,.64-8.57,21,21,0,0,0-1.58-5.63c-.24-.56-.48-1-.71-1.47a23.28,23.28,0,0,1,2.79-2.28c.35-.24.69-.47,1-.67" transform="translate(-16.5 -4.5)"/><path class="cls-3" d="M46.67,44a18,18,0,0,1,2.81-.61c.64.36,1.33.78,2,1.27A22.51,22.51,0,0,1,54.3,47c2-2.41,4.79-3.52,7.11-2.79a5,5,0,0,1,.82.35,5.65,5.65,0,0,1,1.46,1.17,13.25,13.25,0,0,0-5.07,7.87,13,13,0,0,0,.76,7.61c-2.19.59-4.1,1-5.61,1.27a57.17,57.17,0,0,1-10.4,1h-.25V51.19" transform="translate(-16.5 -4.5)"/><path class="cls-3" d="M54.21,47a20.9,20.9,0,0,0-1.65,15.67" transform="translate(-16.5 -4.5)"/><path class="cls-4" d="M35.76,37.84h-2a3.06,3.06,0,0,1-3-3.05V32.67c-3.61-.88-6.11-2.16-6.79-3.61a1.8,1.8,0,0,1-.08-.21,1.74,1.74,0,0,1-.1-.59c0-1.78,2.72-3.37,7-4.4a49.76,49.76,0,0,1,10.87-1.24h2.06" transform="translate(-16.5 -4.5)"/><path class="cls-4" d="M61,28.59a2.17,2.17,0,0,1-.3.73c-1.2,1.92-5.63,3.5-11.51,4.2l-1.2.13-.63.05-.33,0-.33,0V46.08a5.4,5.4,0,0,1-1.15,3.34,5.57,5.57,0,0,1-2.4,1.77,5.31,5.31,0,0,1-1.91.35,5.46,5.46,0,0,1-5.45-5.46V37.84h-2a3.06,3.06,0,0,1-3-3.05V32.67c-3.61-.88-6.11-2.16-6.79-3.61a1.8,1.8,0,0,1-.08-.21C20.18,31,18,33.86,18,37s1.38,3.8,4.82,6" transform="translate(-16.5 -4.5)"/><path class="cls-4" d="M56.23,24.49c3,1,4.77,2.32,4.77,3.77a1.84,1.84,0,0,1,0,.33" transform="translate(-16.5 -4.5)"/><path class="cls-4" d="M62.9,42.66C66,40.55,67.22,39.8,67.22,37c0-3.21-2.37-6.14-6.25-8.36" transform="translate(-16.5 -4.5)"/><path class="cls-5" d="M35.76,37.84h-2a3.06,3.06,0,0,1-3-3.05V32.67c-3.61-.88-6.11-2.16-6.79-3.61a1.8,1.8,0,0,1-.08-.21,1.74,1.74,0,0,1-.1-.59c0-1.78,2.72-3.37,7-4.4a49.76,49.76,0,0,1,10.87-1.24h2.06" transform="translate(-16.5 -4.5)"/><path class="cls-5" d="M61,28.59a2.17,2.17,0,0,1-.3.73c-1.2,1.92-5.63,3.5-11.51,4.2l-1.2.13-.63.05-.33,0-.33,0V46.08a5.4,5.4,0,0,1-1.15,3.34,5.57,5.57,0,0,1-2.4,1.77,5.31,5.31,0,0,1-1.91.35,5.46,5.46,0,0,1-5.45-5.46V37.84h-2a3.06,3.06,0,0,1-3-3.05V32.67c-3.61-.88-6.11-2.16-6.79-3.61a1.8,1.8,0,0,1-.08-.21C20.18,31,18,33.86,18,37s1.38,3.8,4.82,6" transform="translate(-16.5 -4.5)"/><path class="cls-5" d="M56.23,24.49c3,1,4.77,2.32,4.77,3.77a1.84,1.84,0,0,1,0,.33" transform="translate(-16.5 -4.5)"/><path class="cls-5" d="M62.9,42.66C66,40.55,67.22,39.8,67.22,37c0-3.21-2.37-6.14-6.25-8.36" transform="translate(-16.5 -4.5)"/><path class="cls-6" d="M35.76,37.84h-2a3.06,3.06,0,0,1-3-3.05V32.67c-3.61-.88-6.11-2.16-6.79-3.61a1.8,1.8,0,0,1-.08-.21,1.74,1.74,0,0,1-.1-.59c0-1.78,2.72-3.37,7-4.4a49.76,49.76,0,0,1,10.87-1.24h2.06" transform="translate(-16.5 -4.5)"/><path class="cls-6" d="M61,28.59a2.17,2.17,0,0,1-.3.73c-1.2,1.92-5.63,3.5-11.51,4.2l-1.2.13-.63.05-.33,0-.33,0V46.08a5.4,5.4,0,0,1-1.15,3.34,5.57,5.57,0,0,1-2.4,1.77,5.31,5.31,0,0,1-1.91.35,5.46,5.46,0,0,1-5.45-5.46V37.84h-2a3.06,3.06,0,0,1-3-3.05V32.67c-3.61-.88-6.11-2.16-6.79-3.61a1.8,1.8,0,0,1-.08-.21C20.18,31,18,33.86,18,37s1.38,3.8,4.82,6" transform="translate(-16.5 -4.5)"/><path class="cls-6" d="M56.23,24.49c3,1,4.77,2.32,4.77,3.77a1.84,1.84,0,0,1,0,.33" transform="translate(-16.5 -4.5)"/><path class="cls-6" d="M62.9,42.66C66,40.55,67.22,39.8,67.22,37c0-3.21-2.37-6.14-6.25-8.36" transform="translate(-16.5 -4.5)"/><path class="cls-7" d="M35.76,37.84h-2a3.06,3.06,0,0,1-3-3.05V32.67c-3.61-.88-6.11-2.16-6.79-3.61a1.8,1.8,0,0,1-.08-.21,1.74,1.74,0,0,1-.1-.59c0-1.78,2.72-3.37,7-4.4a49.76,49.76,0,0,1,10.87-1.24h2.06" transform="translate(-16.5 -4.5)"/><path class="cls-7" d="M61,28.59a2.17,2.17,0,0,1-.3.73c-1.2,1.92-5.63,3.5-11.51,4.2l-1.2.13-.63.05-.33,0-.33,0V46.08a5.4,5.4,0,0,1-1.15,3.34,5.57,5.57,0,0,1-2.4,1.77,5.31,5.31,0,0,1-1.91.35,5.46,5.46,0,0,1-5.45-5.46V37.84h-2a3.06,3.06,0,0,1-3-3.05V32.67c-3.61-.88-6.11-2.16-6.79-3.61a1.8,1.8,0,0,1-.08-.21C20.18,31,18,33.86,18,37s1.38,3.8,4.82,6" transform="translate(-16.5 -4.5)"/><path class="cls-7" d="M56.23,24.49c3,1,4.77,2.32,4.77,3.77a1.84,1.84,0,0,1,0,.33" transform="translate(-16.5 -4.5)"/><path class="cls-7" d="M62.9,42.66C66,40.55,67.22,39.8,67.22,37c0-3.21-2.37-6.14-6.25-8.36" transform="translate(-16.5 -4.5)"/><path class="cls-8" d="M37.66,6A11.87,11.87,0,0,1,46.16,11" transform="translate(-16.5 -4.5)"/><path class="cls-9" d="M37.66,6A11.87,11.87,0,0,1,46.16,11" transform="translate(-16.5 -4.5)"/><path class="cls-7" d="M37.66,6A11.87,11.87,0,0,1,46.16,11" transform="translate(-16.5 -4.5)"/><path class="cls-1" d="M59.22,18.06a7.76,7.76,0,0,1-2.79,6.21s-.24.17-.27.17a16.37,16.37,0,0,1-1.5.94c-.29.16-.57.3-.84.43l-.73.32a8.84,8.84,0,0,1-1.72.3c-.21,0-.43,0-.64,0a9,9,0,0,1-1.28-.1c-.36-.22-.73-.44-1.13-.65a18.3,18.3,0,0,0-2.75-1.19h0l-.17-.06-.09,0-.18-.05c-.15-.12-.28-.25-.42-.38a8.42,8.42,0,0,1-1.1-1.35h0l0,0a8.24,8.24,0,0,1-1.35-4.54,8.48,8.48,0,0,1,3-6.44,9.08,9.08,0,0,1,.89-.64,8.16,8.16,0,0,1,4.57-1.32C55.42,9.79,59.22,14.26,59.22,18.06Z" transform="translate(-16.5 -4.5)"/><path class="cls-2" d="M59.22,18.06a7.76,7.76,0,0,1-2.79,6.21s-.24.17-.27.17a16.37,16.37,0,0,1-1.5.94c-.29.16-.57.3-.84.43l-.73.32a8.84,8.84,0,0,1-1.72.3c-.21,0-.43,0-.64,0a9,9,0,0,1-1.28-.1c-.36-.22-.73-.44-1.13-.65a18.3,18.3,0,0,0-2.75-1.19h0l-.17-.06-.09,0-.18-.05c-.15-.12-.28-.25-.42-.38a8.42,8.42,0,0,1-1.1-1.35h0l0,0a8.24,8.24,0,0,1-1.35-4.54,8.48,8.48,0,0,1,3-6.44,9.08,9.08,0,0,1,.89-.64,8.16,8.16,0,0,1,4.57-1.32C55.42,9.79,59.22,14.26,59.22,18.06Z" transform="translate(-16.5 -4.5)"/><path class="cls-3" d="M59.22,18.06a7.76,7.76,0,0,1-2.79,6.21s-.24.17-.27.17a16.37,16.37,0,0,1-1.5.94c-.29.16-.57.3-.84.43l-.73.32a8.84,8.84,0,0,1-1.72.3c-.21,0-.43,0-.64,0a9,9,0,0,1-1.28-.1c-.36-.22-.73-.44-1.13-.65a18.3,18.3,0,0,0-2.75-1.19h0l-.17-.06-.09,0-.18-.05c-.15-.12-.28-.25-.42-.38a8.42,8.42,0,0,1-1.1-1.35h0l0,0a8.24,8.24,0,0,1-1.35-4.54,8.48,8.48,0,0,1,3-6.44,9.08,9.08,0,0,1,.89-.64,8.16,8.16,0,0,1,4.57-1.32C55.42,9.79,59.22,14.26,59.22,18.06Z" transform="translate(-16.5 -4.5)"/><path class="cls-10" d="M131,23.65c1.93,0,3.57.05,4.92.16s2.59.26,3.72.45a29.07,29.07,0,0,1,3.47.78l-.77,7.66c-1.26-.07-2.43-.12-3.5-.14l-3.45-.05c-1.22,0-2.68,0-4.39,0a6.06,6.06,0,0,0-3.58.94,5.34,5.34,0,0,0-1.81,3.34,34.94,34.94,0,0,0-.5,6.72,34.94,34.94,0,0,0,.5,6.72,5.29,5.29,0,0,0,1.81,3.34,6,6,0,0,0,3.58.94c2.71,0,5,0,6.75-.11s3.61-.2,5.42-.39l.78,7.61a29.91,29.91,0,0,1-5.7,1.34,58,58,0,0,1-7.25.39,21.47,21.47,0,0,1-9.86-1.92,11.16,11.16,0,0,1-5.33-6.25,33.9,33.9,0,0,1-1.64-11.67,33.9,33.9,0,0,1,1.64-11.67,11.16,11.16,0,0,1,5.33-6.25A21.61,21.61,0,0,1,131,23.65Z" transform="translate(-16.5 -4.5)"/><path class="cls-10" d="M162.19,23.54q2.94,0,6.5.38a33.67,33.67,0,0,1,6.89,1.39l-.67,6.78-6-.11q-3.52-.06-6.92-.06a21.28,21.28,0,0,0-2.14.09,4,4,0,0,0-1.38.33,1.47,1.47,0,0,0-.75.72,3.11,3.11,0,0,0-.23,1.31,2.54,2.54,0,0,0,.81,2,9.47,9.47,0,0,0,2.86,1.41l7.17,2.67Q173,42.31,174.88,45a12,12,0,0,1,1.87,7,16.58,16.58,0,0,1-.78,5.45,7.15,7.15,0,0,1-2.53,3.5,12.09,12.09,0,0,1-4.61,1.89,35.18,35.18,0,0,1-7.08.61c-1.3,0-3.2-.1-5.7-.28a52,52,0,0,1-8.47-1.45l.61-7.33c2.22,0,4.19.08,5.92.14s3.22.09,4.5.11l3,0a16,16,0,0,0,2.89-.2,2.17,2.17,0,0,0,1.39-.72,2.54,2.54,0,0,0,.39-1.53,3.32,3.32,0,0,0-.28-1.5,2.26,2.26,0,0,0-1-.94,10.85,10.85,0,0,0-1.86-.78l-7.67-3a14.71,14.71,0,0,1-6.44-4.5,11.42,11.42,0,0,1-1.89-6.84,15.14,15.14,0,0,1,.83-5.44,7.21,7.21,0,0,1,2.59-3.34,11.88,11.88,0,0,1,4.64-1.75A39.46,39.46,0,0,1,162.19,23.54Z" transform="translate(-16.5 -4.5)"/><path class="cls-1" d="M131,23.65c1.93,0,3.57.05,4.92.16s2.59.26,3.72.45a29.07,29.07,0,0,1,3.47.78l-.77,7.66c-1.26-.07-2.43-.12-3.5-.14l-3.45-.05c-1.22,0-2.68,0-4.39,0a6.06,6.06,0,0,0-3.58.94,5.34,5.34,0,0,0-1.81,3.34,34.94,34.94,0,0,0-.5,6.72,34.94,34.94,0,0,0,.5,6.72,5.29,5.29,0,0,0,1.81,3.34,6,6,0,0,0,3.58.94c2.71,0,5,0,6.75-.11s3.61-.2,5.42-.39l.78,7.61a29.91,29.91,0,0,1-5.7,1.34,58,58,0,0,1-7.25.39,21.47,21.47,0,0,1-9.86-1.92,11.16,11.16,0,0,1-5.33-6.25,33.9,33.9,0,0,1-1.64-11.67,33.9,33.9,0,0,1,1.64-11.67,11.16,11.16,0,0,1,5.33-6.25A21.61,21.61,0,0,1,131,23.65Z" transform="translate(-16.5 -4.5)"/><path class="cls-1" d="M162.19,23.54q2.94,0,6.5.38a33.67,33.67,0,0,1,6.89,1.39l-.67,6.78-6-.11q-3.52-.06-6.92-.06a21.28,21.28,0,0,0-2.14.09,4,4,0,0,0-1.38.33,1.47,1.47,0,0,0-.75.72,3.11,3.11,0,0,0-.23,1.31,2.54,2.54,0,0,0,.81,2,9.47,9.47,0,0,0,2.86,1.41l7.17,2.67Q173,42.31,174.88,45a12,12,0,0,1,1.87,7,16.58,16.58,0,0,1-.78,5.45,7.15,7.15,0,0,1-2.53,3.5,12.09,12.09,0,0,1-4.61,1.89,35.18,35.18,0,0,1-7.08.61c-1.3,0-3.2-.1-5.7-.28a52,52,0,0,1-8.47-1.45l.61-7.33c2.22,0,4.19.08,5.92.14s3.22.09,4.5.11l3,0a16,16,0,0,0,2.89-.2,2.17,2.17,0,0,0,1.39-.72,2.54,2.54,0,0,0,.39-1.53,3.32,3.32,0,0,0-.28-1.5,2.26,2.26,0,0,0-1-.94,10.85,10.85,0,0,0-1.86-.78l-7.67-3a14.71,14.71,0,0,1-6.44-4.5,11.42,11.42,0,0,1-1.89-6.84,15.14,15.14,0,0,1,.83-5.44,7.21,7.21,0,0,1,2.59-3.34,11.88,11.88,0,0,1,4.64-1.75A39.46,39.46,0,0,1,162.19,23.54Z" transform="translate(-16.5 -4.5)"/><path class="cls-2" d="M131,23.65c1.93,0,3.57.05,4.92.16s2.59.26,3.72.45a29.07,29.07,0,0,1,3.47.78l-.77,7.66c-1.26-.07-2.43-.12-3.5-.14l-3.45-.05c-1.22,0-2.68,0-4.39,0a6.06,6.06,0,0,0-3.58.94,5.34,5.34,0,0,0-1.81,3.34,34.94,34.94,0,0,0-.5,6.72,34.94,34.94,0,0,0,.5,6.72,5.29,5.29,0,0,0,1.81,3.34,6,6,0,0,0,3.58.94c2.71,0,5,0,6.75-.11s3.61-.2,5.42-.39l.78,7.61a29.91,29.91,0,0,1-5.7,1.34,58,58,0,0,1-7.25.39,21.47,21.47,0,0,1-9.86-1.92,11.16,11.16,0,0,1-5.33-6.25,33.9,33.9,0,0,1-1.64-11.67,33.9,33.9,0,0,1,1.64-11.67,11.16,11.16,0,0,1,5.33-6.25A21.61,21.61,0,0,1,131,23.65Z" transform="translate(-16.5 -4.5)"/><path class="cls-2" d="M162.19,23.54q2.94,0,6.5.38a33.67,33.67,0,0,1,6.89,1.39l-.67,6.78-6-.11q-3.52-.06-6.92-.06a21.28,21.28,0,0,0-2.14.09,4,4,0,0,0-1.38.33,1.47,1.47,0,0,0-.75.72,3.11,3.11,0,0,0-.23,1.31,2.54,2.54,0,0,0,.81,2,9.47,9.47,0,0,0,2.86,1.41l7.17,2.67Q173,42.31,174.88,45a12,12,0,0,1,1.87,7,16.58,16.58,0,0,1-.78,5.45,7.15,7.15,0,0,1-2.53,3.5,12.09,12.09,0,0,1-4.61,1.89,35.18,35.18,0,0,1-7.08.61c-1.3,0-3.2-.1-5.7-.28a52,52,0,0,1-8.47-1.45l.61-7.33c2.22,0,4.19.08,5.92.14s3.22.09,4.5.11l3,0a16,16,0,0,0,2.89-.2,2.17,2.17,0,0,0,1.39-.72,2.54,2.54,0,0,0,.39-1.53,3.32,3.32,0,0,0-.28-1.5,2.26,2.26,0,0,0-1-.94,10.85,10.85,0,0,0-1.86-.78l-7.67-3a14.71,14.71,0,0,1-6.44-4.5,11.42,11.42,0,0,1-1.89-6.84,15.14,15.14,0,0,1,.83-5.44,7.21,7.21,0,0,1,2.59-3.34,11.88,11.88,0,0,1,4.64-1.75A39.46,39.46,0,0,1,162.19,23.54Z" transform="translate(-16.5 -4.5)"/><path class="cls-3" d="M131,23.65c1.93,0,3.57.05,4.92.16s2.59.26,3.72.45a29.07,29.07,0,0,1,3.47.78l-.77,7.66c-1.26-.07-2.43-.12-3.5-.14l-3.45-.05c-1.22,0-2.68,0-4.39,0a6.06,6.06,0,0,0-3.58.94,5.34,5.34,0,0,0-1.81,3.34,34.94,34.94,0,0,0-.5,6.72,34.94,34.94,0,0,0,.5,6.72,5.29,5.29,0,0,0,1.81,3.34,6,6,0,0,0,3.58.94c2.71,0,5,0,6.75-.11s3.61-.2,5.42-.39l.78,7.61a29.91,29.91,0,0,1-5.7,1.34,58,58,0,0,1-7.25.39,21.47,21.47,0,0,1-9.86-1.92,11.16,11.16,0,0,1-5.33-6.25,33.9,33.9,0,0,1-1.64-11.67,33.9,33.9,0,0,1,1.64-11.67,11.16,11.16,0,0,1,5.33-6.25A21.61,21.61,0,0,1,131,23.65Z" transform="translate(-16.5 -4.5)"/><path class="cls-3" d="M162.19,23.54q2.94,0,6.5.38a33.67,33.67,0,0,1,6.89,1.39l-.67,6.78-6-.11q-3.52-.06-6.92-.06a21.28,21.28,0,0,0-2.14.09,4,4,0,0,0-1.38.33,1.47,1.47,0,0,0-.75.72,3.11,3.11,0,0,0-.23,1.31,2.54,2.54,0,0,0,.81,2,9.47,9.47,0,0,0,2.86,1.41l7.17,2.67Q173,42.31,174.88,45a12,12,0,0,1,1.87,7,16.58,16.58,0,0,1-.78,5.45,7.15,7.15,0,0,1-2.53,3.5,12.09,12.09,0,0,1-4.61,1.89,35.18,35.18,0,0,1-7.08.61c-1.3,0-3.2-.1-5.7-.28a52,52,0,0,1-8.47-1.45l.61-7.33c2.22,0,4.19.08,5.92.14s3.22.09,4.5.11l3,0a16,16,0,0,0,2.89-.2,2.17,2.17,0,0,0,1.39-.72,2.54,2.54,0,0,0,.39-1.53,3.32,3.32,0,0,0-.28-1.5,2.26,2.26,0,0,0-1-.94,10.85,10.85,0,0,0-1.86-.78l-7.67-3a14.71,14.71,0,0,1-6.44-4.5,11.42,11.42,0,0,1-1.89-6.84,15.14,15.14,0,0,1,.83-5.44,7.21,7.21,0,0,1,2.59-3.34,11.88,11.88,0,0,1,4.64-1.75A39.46,39.46,0,0,1,162.19,23.54Z" transform="translate(-16.5 -4.5)"/><path class="cls-11" d="M109.78,24.05V58.72q0,3.68-3.61,3.67H101.5A3.44,3.44,0,0,1,99,61.61a9.89,9.89,0,0,1-1.64-2.28L88,43c-.44-.93-.89-1.93-1.33-3a25.59,25.59,0,0,1-1.11-3.22h-.5q.21,1.61.36,3.3c.09,1.13.14,2.22.14,3.25V62.39H75.83V27.72c0-2.44,1.23-3.67,3.67-3.67h4.61a3.35,3.35,0,0,1,2.45.78,12,12,0,0,1,1.66,2.28l9,15.72a30,30,0,0,1,1.5,3c.48,1.07,1,2.2,1.39,3.39h.5c-.11-1.15-.2-2.28-.28-3.39s-.11-2.22-.11-3.34l0-18.39Z" transform="translate(-16.5 -4.5)"/><path class="cls-5" d="M109.78,24.05V58.72q0,3.68-3.61,3.67H101.5A3.44,3.44,0,0,1,99,61.61a9.89,9.89,0,0,1-1.64-2.28L88,43c-.44-.93-.89-1.93-1.33-3a25.59,25.59,0,0,1-1.11-3.22h-.5q.21,1.61.36,3.3c.09,1.13.14,2.22.14,3.25V62.39H75.83V27.72c0-2.44,1.23-3.67,3.67-3.67h4.61a3.35,3.35,0,0,1,2.45.78,12,12,0,0,1,1.66,2.28l9,15.72a30,30,0,0,1,1.5,3c.48,1.07,1,2.2,1.39,3.39h.5c-.11-1.15-.2-2.28-.28-3.39s-.11-2.22-.11-3.34l0-18.39Z" transform="translate(-16.5 -4.5)"/><path class="cls-6" d="M109.78,24.05V58.72q0,3.68-3.61,3.67H101.5A3.44,3.44,0,0,1,99,61.61a9.89,9.89,0,0,1-1.64-2.28L88,43c-.44-.93-.89-1.93-1.33-3a25.59,25.59,0,0,1-1.11-3.22h-.5q.21,1.61.36,3.3c.09,1.13.14,2.22.14,3.25V62.39H75.83V27.72c0-2.44,1.23-3.67,3.67-3.67h4.61a3.35,3.35,0,0,1,2.45.78,12,12,0,0,1,1.66,2.28l9,15.72a30,30,0,0,1,1.5,3c.48,1.07,1,2.2,1.39,3.39h.5c-.11-1.15-.2-2.28-.28-3.39s-.11-2.22-.11-3.34l0-18.39Z" transform="translate(-16.5 -4.5)"/><path class="cls-7" d="M109.78,24.05V58.72q0,3.68-3.61,3.67H101.5A3.44,3.44,0,0,1,99,61.61a9.89,9.89,0,0,1-1.64-2.28L88,43c-.44-.93-.89-1.93-1.33-3a25.59,25.59,0,0,1-1.11-3.22h-.5q.21,1.61.36,3.3c.09,1.13.14,2.22.14,3.25V62.39H75.83V27.72c0-2.44,1.23-3.67,3.67-3.67h4.61a3.35,3.35,0,0,1,2.45.78,12,12,0,0,1,1.66,2.28l9,15.72a30,30,0,0,1,1.5,3c.48,1.07,1,2.2,1.39,3.39h.5c-.11-1.15-.2-2.28-.28-3.39s-.11-2.22-.11-3.34l0-18.39Z" transform="translate(-16.5 -4.5)"/></svg>