<svg width="48" height="48" viewBox="0 0 48 48" fill="none" xmlns="http://www.w3.org/2000/svg"><path fill-rule="evenodd" clip-rule="evenodd" d="M11.4 44.43a24 24 0 1 1 10.7 3.5l2.37-6.49c.4-1.07 1.7-2.51 2.85-3.78.65-.72 1.22-1.35 1.44-1.72 1.04-1.78 4.23-7.13 4.26-7.18.66-.94 1.71-2.55 2.36-3.6l3.54-5.75c.65-1.05.7-2.37.1-2.94-.1-.1-.22-.17-.35-.22-.65-.24-1.51.15-2.15.95l-3.56 4.96c-.4.53-.87.96-1.31 1.37-.38.35-.76.7-1.1 1.1l-.36.43a.25.25 0 0 1-.18.09c-.06 0-.13 0-.19-.03-.12-.05-.33-.2-.27-.64.01-.06.63-2.68-1.02-3.37l-.07-.03c-.9-.33-1.6.23-2.4 1.17-.11.14-.36.15-.48.11a.47.47 0 0 1-.3-.56c.29-1.26-.23-2.44-1.23-2.8l-.07-.03a2.41 2.41 0 0 0-2.55.87.25.25 0 0 1-.08.07c-.12.12-.34.28-.57.2-.25-.1-.3-.4-.33-.62l-.03-.27-.1-.92c-.13-1.1-.28-2.47-.26-3.38l.39-6.46c.02-.94-.41-1.74-1.08-1.99-.2-.07-.4-.09-.6-.06-.95.12-1.76 1.2-1.85 2.45l-.71 6.53c-.05.66-.03 1.58-.02 2.48.01.66.02 1.28 0 1.79l-.05 2.08c-.02.7-.25 1.2-.67 1.5-.23.16-1.01.72-1.86 1.5-.09.1-.18.18-.28.26-.62.55-1.16 1.03-1.2 2.61-.04.75 0 1.5.1 2.61a7.3 7.3 0 0 0 .83 2.67c.52 1.1 1.54 2.75.85 4.64l-2.5 6.9Z" fill="#000"/></svg>