<svg id="Layer_2" data-name="Layer 2" xmlns="http://www.w3.org/2000/svg" viewBox="0 0 157.63 60.46"><defs><style>.cls-1,.cls-10,.cls-11,.cls-12,.cls-2,.cls-3,.cls-4,.cls-5,.cls-6,.cls-7{fill:none}.cls-1,.cls-10{stroke:#4db5e2}.cls-1,.cls-5{stroke-width:3px}.cls-11,.cls-2{stroke:#80f2ff}.cls-10,.cls-2,.cls-4,.cls-6{stroke-width:2px}.cls-12,.cls-3,.cls-4,.cls-7{stroke:#fff}.cls-4,.cls-5,.cls-6,.cls-7{stroke-linecap:round;stroke-linejoin:round}.cls-5{stroke:#ff5795}.cls-6{stroke:#ff96ff}.cls-11{stroke-width:1.5px}.cls-12{stroke-width:.75px}</style></defs><path class="cls-1" d="m17.1 58.14-1.14-.19c-2-.36-3.86-.8-5.58-1.27a13 13 0 0 0 .76-7.61 13.34 13.34 0 0 0-5.07-7.87 5.83 5.83 0 0 1 .93-.84 4.82 4.82 0 0 1 1.35-.68c2.31-.73 5.11.38 7.1 2.79.23.42.47.91.71 1.47a21 21 0 0 1 1.58 5.63 21.12 21.12 0 0 1-.64 8.57Z"/><path class="cls-1" d="M26.62 46.69v12.27h-.26a63.11 63.11 0 0 1-9.26-.81 21.12 21.12 0 0 0 .64-8.57 21 21 0 0 0-1.58-5.63c-.24-.56-.48-1-.71-1.47a23.28 23.28 0 0 1 2.79-2.28 44 44 0 0 1 1-.67M30.17 39.5a18 18 0 0 1 2.81-.61c.64.36 1.33.78 2 1.27a22.51 22.51 0 0 1 2.82 2.34c2-2.41 4.79-3.52 7.11-2.79a5 5 0 0 1 .82.35 5.65 5.65 0 0 1 1.46 1.17 13.25 13.25 0 0 0-5.07 7.87 13 13 0 0 0 .76 7.61c-2.19.59-4.1 1-5.61 1.27a57.17 57.17 0 0 1-10.4 1h-.25V46.69"/><path class="cls-1" d="M37.71 42.5a20.9 20.9 0 0 0-1.65 15.67"/><path class="cls-2" d="m17.1 58.14-1.14-.19c-2-.36-3.86-.8-5.58-1.27a13 13 0 0 0 .76-7.61 13.34 13.34 0 0 0-5.07-7.87 5.83 5.83 0 0 1 .93-.84 4.82 4.82 0 0 1 1.35-.68c2.31-.73 5.11.38 7.1 2.79.23.42.47.91.71 1.47a21 21 0 0 1 1.58 5.63 21.12 21.12 0 0 1-.64 8.57Z"/><path class="cls-2" d="M26.62 46.69v12.27h-.26a63.11 63.11 0 0 1-9.26-.81 21.12 21.12 0 0 0 .64-8.57 21 21 0 0 0-1.58-5.63c-.24-.56-.48-1-.71-1.47a23.28 23.28 0 0 1 2.79-2.28 44 44 0 0 1 1-.67M30.17 39.5a18 18 0 0 1 2.81-.61c.64.36 1.33.78 2 1.27a22.51 22.51 0 0 1 2.82 2.34c2-2.41 4.79-3.52 7.11-2.79a5 5 0 0 1 .82.35 5.65 5.65 0 0 1 1.46 1.17 13.25 13.25 0 0 0-5.07 7.87 13 13 0 0 0 .76 7.61c-2.19.59-4.1 1-5.61 1.27a57.17 57.17 0 0 1-10.4 1h-.25V46.69"/><path class="cls-2" d="M37.71 42.5a20.9 20.9 0 0 0-1.65 15.67"/><path class="cls-3" d="m17.1 58.14-1.14-.19c-2-.36-3.86-.8-5.58-1.27a13 13 0 0 0 .76-7.61 13.34 13.34 0 0 0-5.07-7.87 5.83 5.83 0 0 1 .93-.84 4.82 4.82 0 0 1 1.35-.68c2.31-.73 5.11.38 7.1 2.79.23.42.47.91.71 1.47a21 21 0 0 1 1.58 5.63 21.12 21.12 0 0 1-.64 8.57Z"/><path class="cls-3" d="M26.62 46.69v12.27h-.26a63.11 63.11 0 0 1-9.26-.81 21.12 21.12 0 0 0 .64-8.57 21 21 0 0 0-1.58-5.63c-.24-.56-.48-1-.71-1.47a23.28 23.28 0 0 1 2.79-2.28 44 44 0 0 1 1-.67M30.17 39.5a18 18 0 0 1 2.81-.61c.64.36 1.33.78 2 1.27a22.51 22.51 0 0 1 2.82 2.34c2-2.41 4.79-3.52 7.11-2.79a5 5 0 0 1 .82.35 5.65 5.65 0 0 1 1.46 1.17 13.25 13.25 0 0 0-5.07 7.87 13 13 0 0 0 .76 7.61c-2.19.59-4.1 1-5.61 1.27a57.17 57.17 0 0 1-10.4 1h-.25V46.69"/><path class="cls-3" d="M37.71 42.5a20.9 20.9 0 0 0-1.65 15.67"/><path class="cls-4" d="M19.26 33.34h-2a3.06 3.06 0 0 1-3-3.05v-2.12c-3.61-.88-6.11-2.16-6.79-3.61a1.8 1.8 0 0 1-.08-.21 1.74 1.74 0 0 1-.1-.59c0-1.78 2.72-3.37 7-4.4a49.76 49.76 0 0 1 10.87-1.24h2.06"/><path class="cls-4" d="M44.5 24.09a2.17 2.17 0 0 1-.3.73c-1.2 1.92-5.63 3.5-11.51 4.2l-1.2.13-.63.05h-.66v12.38a5.4 5.4 0 0 1-1.15 3.34 5.57 5.57 0 0 1-2.4 1.77 5.31 5.31 0 0 1-1.91.35 5.46 5.46 0 0 1-5.45-5.46v-8.24h-2a3.06 3.06 0 0 1-3-3.05v-2.12c-3.61-.88-6.11-2.16-6.79-3.61a1.8 1.8 0 0 1-.08-.21C3.68 26.5 1.5 29.36 1.5 32.5s1.38 3.8 4.82 6M39.73 19.99c3 1 4.77 2.32 4.77 3.77a1.84 1.84 0 0 1 0 .33"/><path class="cls-4" d="M46.4 38.16c3.1-2.11 4.32-2.86 4.32-5.66 0-3.21-2.37-6.14-6.25-8.36"/><path class="cls-5" d="M19.26 33.34h-2a3.06 3.06 0 0 1-3-3.05v-2.12c-3.61-.88-6.11-2.16-6.79-3.61a1.8 1.8 0 0 1-.08-.21 1.74 1.74 0 0 1-.1-.59c0-1.78 2.72-3.37 7-4.4a49.76 49.76 0 0 1 10.87-1.24h2.06"/><path class="cls-5" d="M44.5 24.09a2.17 2.17 0 0 1-.3.73c-1.2 1.92-5.63 3.5-11.51 4.2l-1.2.13-.63.05h-.66v12.38a5.4 5.4 0 0 1-1.15 3.34 5.57 5.57 0 0 1-2.4 1.77 5.31 5.31 0 0 1-1.91.35 5.46 5.46 0 0 1-5.45-5.46v-8.24h-2a3.06 3.06 0 0 1-3-3.05v-2.12c-3.61-.88-6.11-2.16-6.79-3.61a1.8 1.8 0 0 1-.08-.21C3.68 26.5 1.5 29.36 1.5 32.5s1.38 3.8 4.82 6M39.73 19.99c3 1 4.77 2.32 4.77 3.77a1.84 1.84 0 0 1 0 .33"/><path class="cls-5" d="M46.4 38.16c3.1-2.11 4.32-2.86 4.32-5.66 0-3.21-2.37-6.14-6.25-8.36"/><path class="cls-6" d="M19.26 33.34h-2a3.06 3.06 0 0 1-3-3.05v-2.12c-3.61-.88-6.11-2.16-6.79-3.61a1.8 1.8 0 0 1-.08-.21 1.74 1.74 0 0 1-.1-.59c0-1.78 2.72-3.37 7-4.4a49.76 49.76 0 0 1 10.87-1.24h2.06"/><path class="cls-6" d="M44.5 24.09a2.17 2.17 0 0 1-.3.73c-1.2 1.92-5.63 3.5-11.51 4.2l-1.2.13-.63.05h-.66v12.38a5.4 5.4 0 0 1-1.15 3.34 5.57 5.57 0 0 1-2.4 1.77 5.31 5.31 0 0 1-1.91.35 5.46 5.46 0 0 1-5.45-5.46v-8.24h-2a3.06 3.06 0 0 1-3-3.05v-2.12c-3.61-.88-6.11-2.16-6.79-3.61a1.8 1.8 0 0 1-.08-.21C3.68 26.5 1.5 29.36 1.5 32.5s1.38 3.8 4.82 6M39.73 19.99c3 1 4.77 2.32 4.77 3.77a1.84 1.84 0 0 1 0 .33"/><path class="cls-6" d="M46.4 38.16c3.1-2.11 4.32-2.86 4.32-5.66 0-3.21-2.37-6.14-6.25-8.36"/><path class="cls-7" d="M19.26 33.34h-2a3.06 3.06 0 0 1-3-3.05v-2.12c-3.61-.88-6.11-2.16-6.79-3.61a1.8 1.8 0 0 1-.08-.21 1.74 1.74 0 0 1-.1-.59c0-1.78 2.72-3.37 7-4.4a49.76 49.76 0 0 1 10.87-1.24h2.06"/><path class="cls-7" d="M44.5 24.09a2.17 2.17 0 0 1-.3.73c-1.2 1.92-5.63 3.5-11.51 4.2l-1.2.13-.63.05h-.66v12.38a5.4 5.4 0 0 1-1.15 3.34 5.57 5.57 0 0 1-2.4 1.77 5.31 5.31 0 0 1-1.91.35 5.46 5.46 0 0 1-5.45-5.46v-8.24h-2a3.06 3.06 0 0 1-3-3.05v-2.12c-3.61-.88-6.11-2.16-6.79-3.61a1.8 1.8 0 0 1-.08-.21C3.68 26.5 1.5 29.36 1.5 32.5s1.38 3.8 4.82 6M39.73 19.99c3 1 4.77 2.32 4.77 3.77a1.84 1.84 0 0 1 0 .33"/><path class="cls-7" d="M46.4 38.16c3.1-2.11 4.32-2.86 4.32-5.66 0-3.21-2.37-6.14-6.25-8.36"/><path d="M37.66 6a11.87 11.87 0 0 1 8.5 5" transform="translate(-16.5 -4.5)" style="stroke-linecap:round;stroke-linejoin:round;stroke-width:3px;stroke:#4db5e2;fill:none"/><path d="M37.66 6a11.87 11.87 0 0 1 8.5 5" transform="translate(-16.5 -4.5)" style="stroke-linecap:round;stroke-linejoin:round;stroke-width:2px;stroke:#80f2ff;fill:none"/><path class="cls-7" d="M21.16 1.5a11.87 11.87 0 0 1 8.5 5"/><path class="cls-1" d="M42.72 13.56a7.76 7.76 0 0 1-2.79 6.21s-.24.17-.27.17a16.37 16.37 0 0 1-1.5.94c-.29.16-.57.3-.84.43l-.73.32a8.84 8.84 0 0 1-1.72.3h-.64a9 9 0 0 1-1.28-.1 19.8 19.8 0 0 0-1.13-.65 18.3 18.3 0 0 0-2.75-1.19l-.17-.06h-.09l-.18-.05c-.15-.12-.28-.25-.42-.38a8.42 8.42 0 0 1-1.1-1.35 8.24 8.24 0 0 1-1.35-4.54 8.48 8.48 0 0 1 3-6.44 9.08 9.08 0 0 1 .89-.64 8.16 8.16 0 0 1 4.57-1.32c4.7.08 8.5 4.55 8.5 8.35Z"/><path class="cls-2" d="M42.72 13.56a7.76 7.76 0 0 1-2.79 6.21s-.24.17-.27.17a16.37 16.37 0 0 1-1.5.94c-.29.16-.57.3-.84.43l-.73.32a8.84 8.84 0 0 1-1.72.3h-.64a9 9 0 0 1-1.28-.1 19.8 19.8 0 0 0-1.13-.65 18.3 18.3 0 0 0-2.75-1.19l-.17-.06h-.09l-.18-.05c-.15-.12-.28-.25-.42-.38a8.42 8.42 0 0 1-1.1-1.35 8.24 8.24 0 0 1-1.35-4.54 8.48 8.48 0 0 1 3-6.44 9.08 9.08 0 0 1 .89-.64 8.16 8.16 0 0 1 4.57-1.32c4.7.08 8.5 4.55 8.5 8.35Z"/><path class="cls-3" d="M42.72 13.56a7.76 7.76 0 0 1-2.79 6.21s-.24.17-.27.17a16.37 16.37 0 0 1-1.5.94c-.29.16-.57.3-.84.43l-.73.32a8.84 8.84 0 0 1-1.72.3h-.64a9 9 0 0 1-1.28-.1 19.8 19.8 0 0 0-1.13-.65 18.3 18.3 0 0 0-2.75-1.19l-.17-.06h-.09l-.18-.05c-.15-.12-.28-.25-.42-.38a8.42 8.42 0 0 1-1.1-1.35 8.24 8.24 0 0 1-1.35-4.54 8.48 8.48 0 0 1 3-6.44 9.08 9.08 0 0 1 .89-.64 8.16 8.16 0 0 1 4.57-1.32c4.7.08 8.5 4.55 8.5 8.35Z"/><path class="cls-10" d="M112.36 19.15c1.81 0 3.36.05 4.63.14s2.51.21 3.51.41a32.57 32.57 0 0 1 3.34.78l-.67 6.22c-1.22-.07-2.34-.13-3.36-.16s-2.11-.07-3.28-.09h-4.19a7.6 7.6 0 0 0-4.4 1.05 6.27 6.27 0 0 0-2.25 3.86 33.34 33.34 0 0 0-.67 7.58 33.5 33.5 0 0 0 .67 7.59 6.27 6.27 0 0 0 2.25 3.86 7.6 7.6 0 0 0 4.42 1.11q3.82 0 6.44-.11c1.74-.08 3.46-.21 5.17-.39l.72 6.22a32.51 32.51 0 0 1-5.45 1.2 54.84 54.84 0 0 1-6.88.36 20.2 20.2 0 0 1-9.53-1.92 11.06 11.06 0 0 1-5.17-6.25 34.83 34.83 0 0 1-1.58-11.67 34.72 34.72 0 0 1 1.58-11.66 11.09 11.09 0 0 1 5.17-6.26 20.34 20.34 0 0 1 9.53-1.87ZM142.69 19.09c1.89 0 3.94.11 6.17.31a33 33 0 0 1 6.5 1.25l-.56 5.61-5.72-.11c-2.19 0-4.33-.06-6.45-.06-1 0-1.91 0-2.63.09a4.26 4.26 0 0 0-1.75.44 2 2 0 0 0-.95 1.08 5.91 5.91 0 0 0-.28 2 3.82 3.82 0 0 0 .92 2.84 8.29 8.29 0 0 0 3.14 1.61l7.42 2.35c3.07 1 5.2 2.44 6.39 4.22a12.46 12.46 0 0 1 1.77 7 16.32 16.32 0 0 1-.77 5.45 7 7 0 0 1-2.45 3.38 10.71 10.71 0 0 1-4.39 1.75 34.9 34.9 0 0 1-6.66.53c-1.26 0-3.06-.08-5.39-.25a54.19 54.19 0 0 1-8-1.25l.55-6c2.19 0 4.09.09 5.7.14s3 .09 4.14.11h3a16.45 16.45 0 0 0 3.47-.28 2.53 2.53 0 0 0 1.75-1.11 4.7 4.7 0 0 0 .5-2.39 5.32 5.32 0 0 0-.36-2.14 2.83 2.83 0 0 0-1.2-1.16 9.87 9.87 0 0 0-2.19-.86l-7.78-2.66c-2.93-1.08-5-2.48-6.22-4.23a11.67 11.67 0 0 1-1.86-6.93 15.17 15.17 0 0 1 .81-5.42 6.83 6.83 0 0 1 2.5-3.25 10.62 10.62 0 0 1 4.41-1.65 39.87 39.87 0 0 1 6.47-.41Z"/><path class="cls-11" d="M112.36 19.15c1.81 0 3.36.05 4.63.14s2.51.21 3.51.41a32.57 32.57 0 0 1 3.34.78l-.67 6.22c-1.22-.07-2.34-.13-3.36-.16s-2.11-.07-3.28-.09h-4.19a7.6 7.6 0 0 0-4.4 1.05 6.27 6.27 0 0 0-2.25 3.86 33.34 33.34 0 0 0-.67 7.58 33.5 33.5 0 0 0 .67 7.59 6.27 6.27 0 0 0 2.25 3.86 7.6 7.6 0 0 0 4.42 1.11q3.82 0 6.44-.11c1.74-.08 3.46-.21 5.17-.39l.72 6.22a32.51 32.51 0 0 1-5.45 1.2 54.84 54.84 0 0 1-6.88.36 20.2 20.2 0 0 1-9.53-1.92 11.06 11.06 0 0 1-5.17-6.25 34.83 34.83 0 0 1-1.58-11.67 34.72 34.72 0 0 1 1.58-11.66 11.09 11.09 0 0 1 5.17-6.26 20.34 20.34 0 0 1 9.53-1.87ZM142.69 19.09c1.89 0 3.94.11 6.17.31a33 33 0 0 1 6.5 1.25l-.56 5.61-5.72-.11c-2.19 0-4.33-.06-6.45-.06-1 0-1.91 0-2.63.09a4.26 4.26 0 0 0-1.75.44 2 2 0 0 0-.95 1.08 5.91 5.91 0 0 0-.28 2 3.82 3.82 0 0 0 .92 2.84 8.29 8.29 0 0 0 3.14 1.61l7.42 2.35c3.07 1 5.2 2.44 6.39 4.22a12.46 12.46 0 0 1 1.77 7 16.32 16.32 0 0 1-.77 5.45 7 7 0 0 1-2.45 3.38 10.71 10.71 0 0 1-4.39 1.75 34.9 34.9 0 0 1-6.66.53c-1.26 0-3.06-.08-5.39-.25a54.19 54.19 0 0 1-8-1.25l.55-6c2.19 0 4.09.09 5.7.14s3 .09 4.14.11h3a16.45 16.45 0 0 0 3.47-.28 2.53 2.53 0 0 0 1.75-1.11 4.7 4.7 0 0 0 .5-2.39 5.32 5.32 0 0 0-.36-2.14 2.83 2.83 0 0 0-1.2-1.16 9.87 9.87 0 0 0-2.19-.86l-7.78-2.66c-2.93-1.08-5-2.48-6.22-4.23a11.67 11.67 0 0 1-1.86-6.93 15.17 15.17 0 0 1 .81-5.42 6.83 6.83 0 0 1 2.5-3.25 10.62 10.62 0 0 1 4.41-1.65 39.87 39.87 0 0 1 6.47-.41Z"/><path class="cls-12" d="M112.36 19.15c1.81 0 3.36.05 4.63.14s2.51.21 3.51.41a32.57 32.57 0 0 1 3.34.78l-.67 6.22c-1.22-.07-2.34-.13-3.36-.16s-2.11-.07-3.28-.09h-4.19a7.6 7.6 0 0 0-4.4 1.05 6.27 6.27 0 0 0-2.25 3.86 33.34 33.34 0 0 0-.67 7.58 33.5 33.5 0 0 0 .67 7.59 6.27 6.27 0 0 0 2.25 3.86 7.6 7.6 0 0 0 4.42 1.11q3.82 0 6.44-.11c1.74-.08 3.46-.21 5.17-.39l.72 6.22a32.51 32.51 0 0 1-5.45 1.2 54.84 54.84 0 0 1-6.88.36 20.2 20.2 0 0 1-9.53-1.92 11.06 11.06 0 0 1-5.17-6.25 34.83 34.83 0 0 1-1.58-11.67 34.72 34.72 0 0 1 1.58-11.66 11.09 11.09 0 0 1 5.17-6.26 20.34 20.34 0 0 1 9.53-1.87ZM142.69 19.09c1.89 0 3.94.11 6.17.31a33 33 0 0 1 6.5 1.25l-.56 5.61-5.72-.11c-2.19 0-4.33-.06-6.45-.06-1 0-1.91 0-2.63.09a4.26 4.26 0 0 0-1.75.44 2 2 0 0 0-.95 1.08 5.91 5.91 0 0 0-.28 2 3.82 3.82 0 0 0 .92 2.84 8.29 8.29 0 0 0 3.14 1.61l7.42 2.35c3.07 1 5.2 2.44 6.39 4.22a12.46 12.46 0 0 1 1.77 7 16.32 16.32 0 0 1-.77 5.45 7 7 0 0 1-2.45 3.38 10.71 10.71 0 0 1-4.39 1.75 34.9 34.9 0 0 1-6.66.53c-1.26 0-3.06-.08-5.39-.25a54.19 54.19 0 0 1-8-1.25l.55-6c2.19 0 4.09.09 5.7.14s3 .09 4.14.11h3a16.45 16.45 0 0 0 3.47-.28 2.53 2.53 0 0 0 1.75-1.11 4.7 4.7 0 0 0 .5-2.39 5.32 5.32 0 0 0-.36-2.14 2.83 2.83 0 0 0-1.2-1.16 9.87 9.87 0 0 0-2.19-.86l-7.78-2.66c-2.93-1.08-5-2.48-6.22-4.23a11.67 11.67 0 0 1-1.86-6.93 15.17 15.17 0 0 1 .81-5.42 6.83 6.83 0 0 1 2.5-3.25 10.62 10.62 0 0 1 4.41-1.65 39.87 39.87 0 0 1 6.47-.41Z"/><path d="M108.78 24.05v35.28q0 3.06-3.06 3.06h-4.66a3.06 3.06 0 0 1-2.06-.64 5.76 5.76 0 0 1-1.34-1.92L87 39.72c-.44-.85-.88-1.79-1.3-2.83s-.79-2-1.09-3H84c.11 1 .2 2 .28 3s.11 2 .11 3v22.5h-8.06V27.11q0-3.06 3.11-3.06h4.62a2.9 2.9 0 0 1 2 .64 7.1 7.1 0 0 1 1.37 1.92l10.27 19.5c.45.85.91 1.8 1.39 2.83s1 2.12 1.39 3.23h.67a64.13 64.13 0 0 1-.34-6.39V24.05Z" transform="translate(-16.5 -4.5)" style="stroke:#ff5795;stroke-linecap:round;stroke-linejoin:round;stroke-width:2px;fill:none"/><path d="M108.78 24.05v35.28q0 3.06-3.06 3.06h-4.66a3.06 3.06 0 0 1-2.06-.64 5.76 5.76 0 0 1-1.34-1.92L87 39.72c-.44-.85-.88-1.79-1.3-2.83s-.79-2-1.09-3H84c.11 1 .2 2 .28 3s.11 2 .11 3v22.5h-8.06V27.11q0-3.06 3.11-3.06h4.62a2.9 2.9 0 0 1 2 .64 7.1 7.1 0 0 1 1.37 1.92l10.27 19.5c.45.85.91 1.8 1.39 2.83s1 2.12 1.39 3.23h.67a64.13 64.13 0 0 1-.34-6.39V24.05Z" transform="translate(-16.5 -4.5)" style="stroke-width:1.5px;stroke:#ff96ff;stroke-linecap:round;stroke-linejoin:round;fill:none"/><path d="M108.78 24.05v35.28q0 3.06-3.06 3.06h-4.66a3.06 3.06 0 0 1-2.06-.64 5.76 5.76 0 0 1-1.34-1.92L87 39.72c-.44-.85-.88-1.79-1.3-2.83s-.79-2-1.09-3H84c.11 1 .2 2 .28 3s.11 2 .11 3v22.5h-8.06V27.11q0-3.06 3.11-3.06h4.62a2.9 2.9 0 0 1 2 .64 7.1 7.1 0 0 1 1.37 1.92l10.27 19.5c.45.85.91 1.8 1.39 2.83s1 2.12 1.39 3.23h.67a64.13 64.13 0 0 1-.34-6.39V24.05Z" transform="translate(-16.5 -4.5)" style="stroke-width:.75px;stroke-linecap:round;stroke-linejoin:round;stroke:#fff;fill:none"/></svg>